<?xml version="1.0" standalone="no"?>
<!DOCTYPE svg PUBLIC "-//W3C//DTD SVG 20010904//EN"
 "http://www.w3.org/TR/2001/REC-SVG-20010904/DTD/svg10.dtd">
<svg version="1.0" xmlns="http://www.w3.org/2000/svg"
 width="267.000000pt" height="267.000000pt" viewBox="0 0 267.000000 267.000000"
 preserveAspectRatio="xMidYMid meet">
<metadata>
Created by potrace 1.11, written by Peter Selinger 2001-2013
</metadata>
<g transform="translate(0.000000,267.000000) scale(0.100000,-0.100000)"
fill="#000000" stroke="none">
<path d="M795 1960 l-540 -540 535 -535 c294 -294 539 -535 545 -535 6 0 91
81 190 180 l180 180 -348 348 c-277 277 -345 350 -335 360 10 10 46 -21 175
-150 l163 -163 157 158 158 157 -163 163 c-129 129 -160 165 -150 175 10 10
83 -58 360 -335 l348 -348 172 173 173 172 -540 540 -540 540 -540 -540z"/>
<path d="M1672 1367 l-21 -23 202 -202 c111 -111 207 -202 212 -202 13 0 335
322 335 334 0 5 -8 18 -17 28 -16 18 -23 13 -165 -129 l-148 -148 -183 183
c-100 100 -185 182 -188 182 -3 0 -15 -10 -27 -23z"/>
<path d="M272 1297 l-21 -23 539 -539 540 -540 180 180 c99 99 180 185 180
191 0 6 -8 18 -18 27 -17 15 -27 7 -177 -143 l-160 -160 -515 515 c-283 283
-518 515 -521 515 -3 0 -15 -10 -27 -23z"/>
<path d="M1507 1202 l-118 -118 24 -22 23 -22 117 118 118 118 -24 22 -23 22
-117 -118z"/>
</g>
</svg>
